# xmcd CD database file
#
# Track frame offsets:
#	200
#	19992
#	42435
#	63297
#	80047
#	93432
#	119467
#	141030
#	160212
#	176247
#
# Disc length: 2607 seconds
#
# Revision: 0
# Processed by: cddbd v1.5.2PL0 Copyright (c) Steve Scherf et al.
# Submitted via: CDex 1.50Beta6
#
DISCID=890a2d0a
DTITLE=John Steed - Good Hands Now
DYEAR=1900
DGENRE=Country
TTITLE0=Good Hands Now
TTITLE1=I Haven't Been Myself
TTITLE2=Lord Don't Let Me Die
TTITLE3=Born Again
TTITLE4=Over Come
TTITLE5=Beside Still Waters
TTITLE6=No Time For Next Time
TTITLE7=The In Crowd
TTITLE8=Take Him At His Word
TTITLE9=Mr. Luke Warm
EXTD=
EXTT0=
EXTT1=
EXTT2=
EXTT3=
EXTT4=
EXTT5=
EXTT6=
EXTT7=
EXTT8=
EXTT9=
PLAYORDER=
